<svg version="1.2" xmlns="http://www.w3.org/2000/svg" viewBox="0 0 370 348" width="370" height="348">
	<title>Bartender(1)-svg</title>
	<style>
		.s0 { fill: #68e1fd } 
		.s1 { fill: #231f20 } 
		.s2 { fill: #ffffff } 
		.s3 { fill: #d1d3d4 } 
	</style>
	<g id="Character">
		<path id="Layer" class="s0" d="m65.4 81.9c0 0-54.8 24.4-53.3 44.3 1.5 19.9 114.9 46.9 114.9 46.9l11.8 37.1 14-84.1-59.6-12.8 9.3-17z"/>
		<path id="Layer" class="s0" d="m174 121.7c0 0 24.5 113.7 35.9 120.1 11.4 6.4 27.2-113.6 27.2-113.6z"/>
		<path id="Layer" class="s1" d="m174 121.7l-32.4-0.5c0 0 2.6 62.7-8.2 82.6l17.6 101.4h112.9c0 0 15.3-97.5 15.3-123.5v-37.6l-46.2-19.3c0 0-13.4 75.3-25.4 100.3 0 0-25.2-83.2-33.6-103.4z"/>
		<path id="Layer" fill-rule="evenodd" class="s1" d="m263.9 305.9h-112.9c-0.3 0-0.6-0.2-0.7-0.6l-17.6-101.3c0-0.2 0-0.3 0.1-0.5 10.7-19.5 8.2-81.6 8.2-82.3 0-0.4 0.3-0.7 0.7-0.7l32.3 0.5c0.3 0 0.5 0.2 0.6 0.4 7.6 18.3 29.4 89.6 33.1 101.7 11.6-26.2 24.4-97.8 24.5-98.5 0-0.2 0.2-0.4 0.4-0.5q0.3-0.1 0.6 0l46.2 19.3c0.3 0.1 0.4 0.4 0.4 0.6v37.6c0 25.8-15.1 122.7-15.3 123.6 0 0.4-0.2 0.7-0.6 0.7zm-112.3-1.4h111.8c1.3-8.2 15.2-98.2 15.2-122.8v-37.1l-45-18.8c-1.5 8.4-14.1 76.3-25.2 99.7-0.1 0.3-0.4 0.4-0.7 0.4-0.3 0-0.5-0.2-0.6-0.5-0.2-0.8-25-82.3-33.4-102.9l-31.2-0.4c0.3 7.4 2 62.9-8.2 82z"/>
		<path id="Layer" class="s1" d="m179.5 112.2l49.4 2.7-1.9 18.8-34.9-1.8-16.5-9z"/>
		<path id="Layer" fill-rule="evenodd" class="s1" d="m227 134.4l-34.9-1.8c-0.1 0-0.2 0-0.3-0.1l-16.5-9q-0.4-0.3-0.3-0.9l3.9-10.7c0.1-0.3 0.4-0.5 0.7-0.5l49.4 2.7c0.2 0 0.4 0.1 0.5 0.2 0.1 0.1 0.2 0.3 0.2 0.5l-1.9 18.8c-0.1 0.5-0.4 0.8-0.8 0.8zm-34.7-3.2l34.1 1.8 1.7-17.4-48.1-2.7-3.5 9.7z"/>
		<path id="Layer" class="s2" d="m244.2 67.5c3-5.7 4.1-13.5 5.4-19.7 2.1-9.9 2.1-20.8-4.3-29.4-4.2-5.4-9.9-9.4-16.3-11.7-9.2-3.4-19.1-3.7-28.5-1-6.6 1.9-13.3 6-15.3 12.6-13.3 0.8-16.6 13.2-15.8 24.2 0.7 9.6 3.4 19.1 3.9 28.5 10.9 1.2 22 2.8 33.1 3.2 8.7 0.2 32.6 3.4 37.8-6.7z"/>
		<path id="Layer" fill-rule="evenodd" class="s1" d="m222.2 75.5c-4.2 0-8.3-0.3-11.7-0.5-1.6-0.1-3.1-0.2-4.3-0.2-9-0.3-18.1-1.4-26.9-2.4l-6.2-0.7c-0.3 0-0.6-0.3-0.6-0.7-0.4-5-1-9.9-2-14.8-0.9-4.5-1.5-9.1-1.9-13.7-0.4-4.8-0.2-13.8 5-19.7 2.8-3.1 6.8-5 11-5.2 2-5.7 7.7-10.2 15.7-12.6 9.5-2.8 19.7-2.4 29 1 6.6 2.3 12.4 6.5 16.6 12 5.6 7.5 7.1 17.6 4.5 30-0.2 1.2-0.5 2.4-0.7 3.6-1.1 5.4-2.3 11.6-4.7 16.3-3.4 6.3-13.3 7.6-22.8 7.6zm-48.3-5.2c1.9 0.2 3.8 0.4 5.7 0.7 8.8 1 17.8 2.1 26.8 2.4 1.2 0 2.6 0.1 4.3 0.2 10 0.7 28.7 1.9 33-6.5 2.4-4.6 3.6-10.6 4.6-15.9 0.2-1.2 0.5-2.5 0.7-3.6 2.6-12 1.1-21.7-4.2-28.9-4.1-5.3-9.7-9.3-16-11.5-9-3.3-18.8-3.7-28.1-1-3.7 1.1-12.4 4.4-14.9 12.1-0.1 0.3-0.3 0.5-0.6 0.5-4 0.1-7.8 1.8-10.5 4.8-4.8 5.5-5 14-4.6 18.7 0.4 4.6 1.1 9.1 1.9 13.6 0.9 4.8 1.5 9.6 1.9 14.4z"/>
		<path id="Layer" class="s2" d="m185.3 66c-0.9-12.1-20.5-16.8-20.7-2.6-0.1 4.9 1 9.9 4.1 13.7 3.1 3.8 8.4 5.9 13 4.3"/>
		<path id="Layer" class="s1" d="m178.5 82.6c-4-0.1-7.8-1.9-10.3-5.1-3.7-4.5-4.4-10.2-4.3-14.1 0.1-6.8 4.5-9.3 8.5-9.4 6-0.2 13.1 4.7 13.6 12 0.1 0.4-0.2 0.7-0.6 0.8-0.4 0.1-0.7-0.2-0.8-0.6v-0.1c-0.5-6.5-6.8-10.9-12.2-10.7-4.4 0.1-7.1 3.1-7.1 8-0.1 3.8 0.6 9.1 4 13.2 3.1 3.8 8.2 5.5 12.3 4.1 0.4-0.1 0.8 0.1 0.9 0.4 0.1 0.4-0.1 0.8-0.4 0.9q-1.8 0.6-3.6 0.6z"/>
		<path id="Layer" class="s2" d="m228.4 68.3c2.1-12 22.1-14.6 20.9-0.4-0.4 4.9-2.1 9.8-5.5 13.2-3.4 3.4-9 5-13.4 2.9"/>
		<path id="Layer" class="s1" d="m234.7 85.5c-1.6 0-3.2-0.3-4.6-1-0.4-0.2-0.5-0.6-0.3-0.9 0.2-0.4 0.6-0.5 0.9-0.3 3.9 1.8 9.1 0.7 12.6-2.8 3.8-3.8 5-9 5.3-12.8 0.4-4.9-1.9-8.2-6.3-8.8-5.3-0.7-12.1 3-13.2 9.4-0.1 0.4-0.4 0.6-0.8 0.6-0.4-0.1-0.6-0.4-0.6-0.8 1.3-7.2 8.8-11.3 14.8-10.5 4 0.5 8.1 3.5 7.5 10.3-0.3 4-1.6 9.6-5.7 13.6-2.6 2.5-6 4-9.6 4z"/>
		<path id="Layer" class="s2" d="m180.7 125.9c0 0 8.9 5.1 24.6 6.5 15.7 1.4 18.5-2.8 18.5-2.8l0.1-8.4 0.1-19.6 0.1-18.3-35.8-3.1-2.5 14.8-0.8 4.8z"/>
		<path id="Layer" fill-rule="evenodd" class="s1" d="m211.1 133.4c-1.8 0-3.7-0.1-5.9-0.3-15.6-1.4-24.5-6.4-24.9-6.6-0.3-0.1-0.4-0.4-0.3-0.7l7.6-45.6c0.1-0.4 0.4-0.6 0.8-0.6l35.8 3.1c0.4 0 0.6 0.3 0.6 0.7l-0.3 46.3c0 0.1-0.1 0.3-0.1 0.4-0.2 0.1-2.5 3.3-13.3 3.3zm-29.6-7.9c1.9 1 10.4 5 23.9 6.2 13.2 1.1 17-1.7 17.7-2.3l0.3-45.4-34.5-3z"/>
		<path id="Layer" class="s1" d="m185.1 99.8c2.3 4.6 6.5 8.4 10.9 11.3 7.3 4.9 18.4 10.7 27.9 10.1l0.1-19.6c-6.9 0.3-13.8-0.3-20.6-1.6-6-1.1-12.1-2.2-17.5-5z"/>
		<path id="Layer" fill-rule="evenodd" class="s1" d="m222.4 121.9c-10 0-21-6.4-26.9-10.3-5.3-3.6-9-7.4-11.1-11.6-0.1-0.1-0.1-0.3-0.1-0.4l0.8-4.8c0-0.2 0.2-0.4 0.4-0.5q0.3-0.2 0.6 0c5.4 2.8 11.7 4 17.3 4.9 6.7 1.4 13.6 1.9 20.5 1.6 0.2 0 0.4 0.1 0.5 0.2 0.1 0.1 0.2 0.3 0.2 0.5l-0.1 19.6c0 0.4-0.3 0.7-0.7 0.7-0.4 0.1-0.9 0.1-1.4 0.1zm-36.6-22.3c2 3.8 5.6 7.5 10.5 10.9 5.8 3.9 17 10.4 26.8 10l0.1-18.2c-6.7 0.2-13.5-0.4-20.1-1.7-5.4-0.9-11.4-2-16.8-4.6z"/>
		<path id="Layer" class="s2" d="m240 36.3l-3.8 43.4c-1.3 15.1-14.6 26.3-29.7 25h-0.1l-3.2-0.3c-15.1-1.3-26.3-14.6-25-29.8 0.5-6.3-0.6-15.2 4.3-19.8 6.5-6.2 10.9-14.2 12.9-23 1.8 4.6 6.4 7.6 11.1 8.8 7.6 2 15.5 0.5 23-1.1 0.9-0.2 10.3-2 10.5-3.2z"/>
		<path id="Layer" fill-rule="evenodd" class="s1" d="m208.8 105.5c-0.8 0-1.6 0-2.4-0.1l-3.2-0.3c-15.5-1.3-27-15-25.7-30.5 0.1-1.4 0.2-2.8 0.2-4.4 0.1-5.6 0.3-12 4.3-15.9 6.3-6.1 10.7-14 12.7-22.6q0.2-0.5 0.6-0.6c0.3 0 0.6 0.2 0.7 0.4 1.6 4 5.5 7.1 10.6 8.4 7.5 1.9 15.3 0.5 22.7-1.1l0.5-0.1c7.8-1.6 9.2-2.4 9.5-2.7 0.1-0.4 0.5-0.6 0.9-0.5 0.3 0.1 0.5 0.4 0.5 0.7 0 0 0 0 0 0.1v0.1c-0.1 0.9-0.6 6.6-3.8 43.3-0.2 1.9-0.5 3.8-1.1 5.6-3.6 12-14.6 20.2-27 20.2zm-13.3-71.6c-2.2 8.2-6.5 15.6-12.6 21.4-3.6 3.4-3.7 9.5-3.9 14.9 0 1.6-0.1 3.1-0.2 4.5-1.3 14.7 9.6 27.7 24.4 29l3.2 0.3c12.6 1.1 24.3-6.9 28-19 0.5-1.7 0.8-3.5 1-5.3 0 0 3-34.2 3.6-41.9-3 1.1-6 1.9-9.1 2.4l-0.5 0.1c-7.5 1.7-15.6 3.1-23.4 1.1-4.2-1-8-3.7-10.5-7.5z"/>
		<path id="Layer" class="s3" d="m237 70.2c1.2 27.5-17.4 35.6-30.6 34.5l-3.2-0.3c-30.1-3.8-25-29.8-24.3-38.5 1 7.4 3.9 19.4 10.1 21 3.2 0.9 6.6-7.1 9.8-8.6 3.2-1.5 11.9 0 16.6 0.6 4.7 0.6 6.2 8.6 8.6 9.8 1.7 0.7 9.2-6.1 13-18.5z"/>
		<path id="Layer" fill-rule="evenodd" class="s1" d="m208.9 105.5c-0.8 0-1.7 0-2.5-0.1l-3.2-0.3c-28.7-3.6-26.2-27.2-25.1-37.2 0.1-0.8 0.2-1.4 0.2-2.1 0-0.4 0.3-0.6 0.7-0.6 0.4 0 0.7 0.3 0.7 0.6 1.1 8.9 4.3 19 9.6 20.4 1.4 0.4 3.3-2.1 5-4.2 1.5-1.9 2.9-3.7 4.3-4.4 2.9-1.4 9.7-0.4 14.6 0.2l2.4 0.3c3.2 0.4 5 3.8 6.5 6.5 0.8 1.5 1.6 3 2.3 3.3 1.3 0.2 8.3-6.2 12-18 0.1-0.3 0.4-0.5 0.8-0.5 0.3 0 0.6 0.3 0.6 0.7 0.5 11.8-2.6 21.4-9.1 27.6-5.4 5.1-12.5 7.9-19.8 7.8zm-29.8-34.4c-1 11.1-0.7 29.4 24.2 32.6l3.2 0.3c7.8 0.7 15.4-1.9 21.1-7.2 5.5-5.3 8.5-13 8.7-22.6-3.4 8.4-8.3 13.8-11 15-0.5 0.3-1.1 0.3-1.6 0.1-1.1-0.5-2-2.1-3-3.9-1.4-2.6-3-5.5-5.5-5.8l-2.4-0.3c-4.5-0.6-11.3-1.5-13.8-0.3-1.2 0.6-2.5 2.3-3.8 4-2 2.6-4.1 5.3-6.4 4.7-5.6-1.6-8.4-10.3-9.7-16.6z"/>
		<path id="Layer" class="s2" d="m208.4 59.1c0 0 8 20.4 4 20.5-4 0.1-9.5-3.1-9.5-3.1"/>
		<path id="Layer" class="s1" d="m212.1 80.3c-4.1 0-9.4-3.1-9.6-3.2-0.3-0.2-0.4-0.6-0.2-1 0.2-0.3 0.6-0.4 0.9-0.2 0 0 5.3 3.1 9.1 3 0.1 0 0.1 0 0.2-0.1 1.3-1.9-2.3-13-4.8-19.4-0.1-0.4 0.1-0.8 0.5-0.9 0.3-0.1 0.7 0.1 0.8 0.4 1.1 2.9 6.7 17.6 4.7 20.7-0.3 0.5-0.8 0.8-1.3 0.8z"/>
		<path id="Layer" class="s0" d="m228.9 114.9c-0.7 0-23.9 17.5-23.9 17.5l12.9 16.7 15-24.3z"/>
		<path id="Layer" fill-rule="evenodd" class="s1" d="m217.9 149.8c-0.2 0-0.4-0.1-0.5-0.3l-12.9-16.7c-0.1-0.1-0.2-0.3-0.1-0.5 0-0.2 0.1-0.4 0.3-0.5 23.4-17.7 24-17.6 24.3-17.6 0.3 0 0.5 0.2 0.6 0.4l4.1 9.9c0.1 0.2 0.1 0.4-0.1 0.6l-15 24.3c-0.2 0.2-0.4 0.4-0.7 0.4zm-11.9-17.3l11.8 15.4 14.3-23.1-3.6-8.8c-2.8 1.7-14.4 10.4-22.5 16.5z"/>
		<path id="Layer" class="s0" d="m179.5 112.2c0.7 0 25.8 20.2 25.8 20.2l-16.7 15.2-14.6-25.9z"/>
		<path id="Layer" fill-rule="evenodd" class="s1" d="m188.6 148.2h-0.1c-0.2 0-0.4-0.2-0.5-0.4l-14.6-25.8c-0.1-0.2-0.1-0.5 0-0.7l5.5-9.5c0.1-0.2 0.4-0.4 0.6-0.4 0.3 0 0.9 0 26.2 20.4 0.2 0.1 0.2 0.3 0.3 0.5 0 0.2-0.1 0.4-0.2 0.5l-16.8 15.3c-0.1 0.1-0.3 0.1-0.4 0.1zm-13.8-26.5l13.9 24.7 15.4-14c-8.9-7.2-21.6-17.3-24.4-19.3z"/>
		<path id="Layer" class="s1" d="m197.5 54.3c-2.5 0-5-1-6.9-2.6-0.3-0.3-0.3-0.7 0-1 0.3-0.3 0.7-0.3 1 0 3.1 2.8 7.7 3 11.1 0.6 0.3-0.2 0.8-0.2 1 0.2 0.2 0.3 0.2 0.7-0.1 1 0 0 0 0-0.1 0-1.7 1.2-3.8 1.8-6 1.8z"/>
		<path id="Layer" class="s1" d="m221.4 56.9c-2.1 0-4.1-0.6-5.8-1.7-0.3-0.2-0.4-0.7-0.1-1 0.2-0.3 0.7-0.4 1-0.2 0.2 0.2 5.4 4 12.4-1.4 0.3-0.3 0.7-0.2 1 0 0.3 0.3 0.2 0.7 0 1 0 0-0.1 0-0.1 0.1-2.4 2-5.4 3.1-8.4 3.2z"/>
		<path id="Layer" class="s1" d="m211.4 94.4h-0.9c-12.1-0.6-13.6-8.4-13.6-8.7-0.1-0.4 0.2-0.7 0.6-0.8 0.4-0.1 0.7 0.2 0.8 0.6 0 0.3 1.4 7 12.3 7.5 6.4 0.3 8.6-3.1 8.7-3.3 0.2-0.3 0.6-0.5 0.9-0.3 0 0 0 0 0.1 0 0.3 0.2 0.5 0.6 0.3 1-0.2 0.2-2.6 4-9.2 4z"/>
		<path id="Layer" class="s1" d="m206.9 137.9c-0.6-0.9-1.6-1.5-2.7-1.6-1.2 0-2.4 0.7-2.9 1.8l-17-4c0 0 1.9 13.5 3.4 15.1 1.1 1.1 9.4-3.8 13.8-6.6 0.9 1.5 2.9 1.9 4.4 1 0.4-0.2 0.7-0.6 1-1 4.1 2.7 12 8.6 13 7.8 1.4-1.1 6.2-15.8 6.1-16.2-0.1-0.4-12.3 2.3-19.1 3.7z"/>
		<path id="Layer" class="s1" d="m205 156.5c-1.2 0-2.2-1-2.2-2.2 0-1.2 1-2.2 2.2-2.2 1.2 0 2.2 1 2.2 2.2 0 1.2-1 2.2-2.2 2.2z"/>
		<path id="Layer" class="s1" d="m206.7 178c-1.2 0-2.2-1-2.2-2.2 0-1.2 1-2.2 2.2-2.2 1.2 0 2.2 1 2.2 2.2 0 1.2-1 2.2-2.2 2.2z"/>
		<path id="Layer" class="s1" d="m207.3 199.9c-1.2 0-2.2-1-2.2-2.2 0-1.2 1-2.2 2.2-2.2 1.2 0 2.2 1 2.2 2.2 0 1.2-1 2.2-2.2 2.2z"/>
		<path id="Layer" class="s1" d="m61.4 140.1h-0.9c-0.4 0-0.7-0.4-0.7-0.8 0-0.4 0.3-0.7 0.7-0.7 15.2 1 31.9-25.3 32.1-25.6 0.2-0.3 0.6-0.4 1-0.2 0.3 0.2 0.4 0.6 0.3 0.9 0 0 0 0 0 0.1-0.7 1.1-16.8 26.3-32.5 26.3z"/>
		<path id="Layer" class="s1" d="m127.1 173.8c-0.3 0-0.6-0.2-0.7-0.6l-5.8-28.9c-0.1-0.4 0.1-0.8 0.5-0.9 0.4-0.1 0.8 0.1 0.9 0.5v0.1l5.8 28.9c0.1 0.4-0.2 0.7-0.5 0.8z"/>
		<path id="Layer" class="s2" d="m112.3 68.3c0.5 0.1 11.1 0.9 14.1 2.6 3 1.7 12.1 13.6 8.2 13.6-3.9 0-13.4-7.8-13.6-8.1-0.2-0.3-8.8-1.2-8.8-1.2v-6.9z"/>
		<path id="Layer" fill-rule="evenodd" class="s1" d="m134.7 85.2c-4 0-12.7-7.1-14-8.3-0.7-0.2-4.8-0.8-8.4-1.1-0.4 0-0.6-0.3-0.6-0.7v-6.9q0-0.3 0.3-0.6c0.2-0.1 0.4-0.2 0.6-0.1 0.1 0 0.5 0.1 1.1 0.1 4.9 0.5 10.9 1.2 13.2 2.6 2.7 1.6 10.3 10.9 9.5 13.8-0.3 0.9-0.9 1.3-1.7 1.2zm-21.7-10.7c8.2 0.9 8.4 1.2 8.6 1.4 0.6 0.7 9.6 7.9 13.1 7.9 0.2 0 0.2 0 0.2 0 0 0 0.1-0.1 0-0.6-0.7-3.1-6.7-10.4-8.8-11.7-2.3-1.4-9.8-2.1-12.6-2.4l-0.5-0.1z"/>
		<path id="Layer" class="s2" d="m119.6 115.1l-60.9-20c0 0-3.8-3.7-0.4-16.3 3.4-12.6 8.5-14 8.5-14l62.7 13.1c-9.7 9.6-13.5 23.9-9.9 37.2z"/>
		<path id="Layer" fill-rule="evenodd" class="s1" d="m119.6 115.8c-0.1 0-0.1 0-0.2 0l-60.9-20c-0.1 0-0.2-0.1-0.3-0.2-0.2-0.2-4.1-4.1-0.6-17 3.5-12.9 8.8-14.4 9-14.4q0.2 0 0.3 0l62.7 13.1c0.3 0.1 0.5 0.2 0.5 0.5 0.1 0.3 0 0.5-0.2 0.7-9.6 9.5-13.3 23.5-9.8 36.5 0.1 0.2 0 0.5-0.2 0.7 0.1 0.1-0.1 0.2-0.3 0.1zm-60.4-21.3l59.5 19.6c-3-12.8 0.6-26.2 9.6-35.8l-61.3-12.8c-0.8 0.3-5 2.5-7.9 13.4-2.9 10.9-0.4 14.9 0.1 15.6z"/>
		<path id="Layer" class="s2" d="m129.4 77.8c4.3 1.1 11.6 12 8.8 22.3-2.8 10.3-14.5 16-18.8 14.9-4.3-1.1-5.5-10.4-2.8-20.6 2.7-10.2 8.6-17.7 12.8-16.6z"/>
		<path id="Layer" fill-rule="evenodd" class="s1" d="m120.7 115.8c-0.5 0-0.9 0-1.4-0.2-4.7-1.3-6.1-10.7-3.2-21.5 2.9-10.8 8.8-18.3 13.5-17 4.7 1.3 12.1 12.8 9.3 23.1-1.7 6.3-6.4 10.3-9.1 12.1-3.1 2.2-6.6 3.5-9.1 3.5zm7.8-37.4c-3.7 0-8.7 7-11.1 16.1-2.6 9.7-1.6 18.8 2.2 19.8 3.8 1 15.3-4.4 17.9-14.4 2.6-10-4.6-20.4-8.3-21.4-0.2-0.1-0.4-0.1-0.7-0.1z"/>
		<path id="Layer" class="s2" d="m133.2 105c-1.5-4.2-0.2-8.8 3.1-11.7l11.7 3.1-3.1 11.7z"/>
		<path id="Layer" fill-rule="evenodd" class="s1" d="m144.9 108.9h-0.2l-11.7-3.1c-0.2-0.1-0.4-0.2-0.4-0.4-1.6-4.5-0.3-9.5 3.4-12.6 0.2-0.1 0.4-0.1 0.6-0.1l11.7 3.1c0.4 0.1 0.6 0.5 0.5 0.9l-3.1 11.7c-0.2 0.2-0.4 0.5-0.8 0.5zm-11.1-4.5l10.7 2.9 2.8-10.4-10.7-2.9c-2.9 2.7-4 6.7-2.8 10.4z"/>
		<path id="Layer" class="s2" d="m115.1 82.8c0 1.5-0.3 3-0.8 4.4-0.6 2.1-2.8 3.2-4.8 2.6-1.2-0.4-2.2-1.3-2.6-2.5-0.7-1.6-1-3.3-1-5l-0.6-12c-2.3 3.9-2.5 8.7-3.4 13.2-0.2 1.4-0.7 2.8-1.5 3.9-0.8 1.2-2.3 1.8-3.7 1.5-1.8-0.5-2.6-2.6-3-4.4-0.9-4.5-0.8-9.1 0.3-13.6-2.4 0.7-4.2 2.6-4.8 5-0.4 1.6-0.3 3.2-0.6 4.8-0.3 1.6-1.4 3.2-3 3.4-1.5 0-2.9-1-3.4-2.4-0.4-1.4-0.6-2.9-0.4-4.4l0.3-5c0.2-3.1 0.6-6.5 2.9-8.5 2-1.6 4.7-1.8 6.9-0.4 3.8-2.4 8.8-1.8 12 1.3 0.1 0.1 6.5-1.1 7.7-0.6 1.8 0.6 3.3 2 4.1 3.8 1.4 4-0.4 10.7-0.6 14.9z"/>
		<path id="Layer" fill-rule="evenodd" class="s1" d="m110.6 90.7c-1.9-0.1-3.6-1.3-4.4-3.1-0.7-1.7-1-3.5-1-5.3l-0.5-9.2c-0.8 2.3-1.3 4.7-1.6 7.2-0.2 1.1-0.3 2.2-0.6 3.3-0.2 1.5-0.8 3-1.6 4.2-1 1.4-2.7 2.1-4.4 1.8-1.7-0.5-2.9-2.2-3.5-5q-1.2-6.3 0-12.6c-1.6 0.8-2.7 2.3-3.2 4-0.2 0.8-0.3 1.6-0.3 2.5q0 1.2-0.3 2.4c-0.4 1.8-1.7 3.7-3.6 4-1.9 0-3.5-1.1-4.1-2.9-0.5-1.5-0.6-3.1-0.4-4.7l0.3-5c0.2-3.4 0.6-6.8 3.1-8.9 2.1-1.7 4.9-2 7.3-0.7 4-2.2 8.9-1.7 12.3 1.5l1.2-0.2c3.6-0.5 5.6-0.7 6.5-0.4 2 0.7 3.7 2.2 4.5 4.2 1 3 0.4 7.2-0.1 11-0.2 1.5-0.4 3-0.5 4.2 0 1.6-0.3 3.2-0.9 4.7-0.6 1.7-2.1 2.9-3.9 3.2 0-0.2-0.1-0.2-0.3-0.2zm-5.3-21.2c0.1 0 0.1 0 0.2 0 0.3 0.1 0.5 0.3 0.5 0.6l0.6 12c0 1.6 0.3 3.3 0.9 4.8 0.5 1.7 2.3 2.7 4 2.2 1.1-0.3 1.9-1.2 2.2-2.2 0.5-1.4 0.7-2.8 0.7-4.2 0.1-1.3 0.3-2.8 0.5-4.3 0.5-3.6 1.1-7.6 0.2-10.4-0.7-1.6-2-2.8-3.6-3.3-0.7-0.2-4.4 0.3-5.8 0.5-1.9 0.3-1.9 0.3-2.2 0-3-2.9-7.6-3.4-11.1-1.2-0.2 0.2-0.5 0.2-0.8 0-1.9-1.2-4.3-1-6 0.4-2.1 1.8-2.5 4.9-2.7 8l-0.3 5c-0.2 1.4-0.1 2.8 0.3 4.1 0.4 1.2 1.4 2 2.7 2 1.3-0.1 2.1-1.6 2.4-2.9 0.1-0.7 0.2-1.4 0.2-2.1 0-0.9 0.2-1.8 0.4-2.7 0.7-2.6 2.7-4.7 5.3-5.4 0.2-0.1 0.5 0 0.7 0.2 0.2 0.2 0.3 0.4 0.2 0.7-1 4.4-1.1 8.9-0.3 13.3 0.3 1.6 1 3.5 2.5 3.9 1.2 0.2 2.3-0.3 3-1.3 0.7-1.1 1.2-2.3 1.3-3.6q0.3-1.6 0.6-3.3c0.5-3.5 1.1-7.1 2.9-10.1 0.1-0.4 0.3-0.6 0.5-0.7z"/>
	</g>
	<g id="Table">
		<path id="Layer" class="s2" d="m368.1 334.1h-364.2l23.1-41.3h318z"/>
		<path id="Layer" fill-rule="evenodd" class="s1" d="m368.1 334.8h-364.2c-0.4 0-0.7-0.3-0.7-0.7 0-0.1 0-0.2 0.1-0.3l23-41.3c0.1-0.2 0.4-0.4 0.6-0.4h318.1c0.3 0 0.5 0.1 0.6 0.4l23 41.3c0.2 0.3 0 0.8-0.3 0.9-0.1 0-0.2 0.1-0.2 0.1zm-363-1.4h361.8l-22.3-39.9h-317.2z"/>
		<path id="Layer" class="s1" d="m3.9 334.1h364.2v10.1h-364.2z"/>
		<path id="Layer" fill-rule="evenodd" class="s1" d="m368.1 344.9h-364.2c-0.4 0-0.7-0.3-0.7-0.7v-10.1c0-0.4 0.3-0.7 0.7-0.7h364.2c0.4 0 0.7 0.3 0.7 0.7v10.1c0 0.4-0.3 0.7-0.7 0.7zm-363.5-1.4h362.8v-8.7h-362.8z"/>
	</g>
	<g id="Glass">
		<path id="Layer" class="s2" d="m170.6 249.9h35.6v59.5c0 1.4-1.1 2.5-2.5 2.5h-30.5c-1.4 0-2.6-1.1-2.6-2.5z"/>
		<path id="Layer" fill-rule="evenodd" class="s1" d="m202.7 312.6h-28.5c-2.4 0-4.3-1.9-4.3-4.3v-58.4c0-0.4 0.3-0.7 0.7-0.7h35.6c0.4 0 0.7 0.3 0.7 0.7v58.5c0.1 2.3-1.9 4.2-4.2 4.2zm-31.4-62v57.8c0 1.6 1.3 2.9 2.9 2.9h28.5c1.6 0 2.9-1.3 2.9-2.9v-57.8z"/>
		<path id="Layer" class="s2" d="m174.1 311.9h28.6v4.1c0 1.5-1.2 2.7-2.7 2.7h-23.3c-1.5 0-2.7-1.2-2.7-2.7v-4.1z"/>
		<path id="Layer" fill-rule="evenodd" class="s1" d="m177.9 319.4c-2.4 0-4.4-2-4.4-4.4v-3c0-0.4 0.3-0.7 0.7-0.7h28.6c0.4 0 0.7 0.3 0.7 0.7v3c0 2.4-2 4.4-4.5 4.4zm-3.1-6.8v2.3c0 1.7 1.3 3 3 3h21.2c1.7 0 3-1.3 3-3v-2.3z"/>
		<path id="Layer" class="s3" d="m188.5 255.5c-9.4 0-17-2.5-17-5.6 0-3.1 7.6-5.6 17-5.6 9.4 0 17 2.5 17 5.6 0 3.1-7.6 5.6-17 5.6z"/>
		<path id="Layer" fill-rule="evenodd" class="s1" d="m188.5 256.2c-8.6 0-17.7-2.2-17.7-6.3 0-4.1 9.1-6.4 17.7-6.4 8.6 0 17.7 2.2 17.7 6.4 0 4.2-9.1 6.3-17.7 6.3zm0-11.3c-9.6 0-16.3 2.6-16.3 5 0 2.4 6.7 4.9 16.3 4.9 9.6 0 16.3-2.6 16.3-4.9 0-2.3-6.7-5-16.3-5z"/>
	</g>
	<g id="Water_Pouring">
		<path id="Layer" class="s2" d="m191.3 255.5c-0.2-1.9-0.7-5.8-1.4-11.2-2.7-20.2-8.2-60.2-13.4-81.5-7.1-29.3-22.7-56.9-29.3-63.1l-1 3.8c0 0 12 12.4 21.2 48.5 6 23.8 10.8 70.5 12.9 92.9 0.4 4.4 0.7 7.8 0.9 10"/>
		<path id="Layer" class="s1" d="m191.3 256.1c-0.4 0-0.6-0.3-0.7-0.6-0.2-1.9-0.7-5.8-1.4-11.2-2.2-17.2-8.1-59.5-13.4-81.4-3.5-13.8-8.5-27.3-14.8-40.1-4.8-9.7-10-18.1-13.5-21.9l-0.6 2.3c1.9 2.1 12.6 15.2 21.1 48.5 5.9 23.5 10.6 68.4 12.9 93 0.4 4.4 0.7 7.8 0.9 10 0 0.4-0.3 0.7-0.6 0.8-0.4 0-0.7-0.3-0.8-0.6-0.2-2.2-0.5-5.6-0.9-10-1.8-19.8-6.7-68.6-12.9-92.8-9-35.4-20.9-48.1-21-48.2-0.2-0.2-0.2-0.4-0.2-0.7l1-3.8c0.1-0.2 0.3-0.4 0.5-0.4 0.2-0.1 0.5 0 0.7 0.2 6.4 5.9 22.1 32.9 29.5 63.4 5.4 22 11.2 64.4 13.4 81.6 0.7 5.4 1.2 9.3 1.4 11.2 0.2 0.3-0.1 0.7-0.6 0.7z"/>
	</g>
	<g id="Spirits">
		<path id="Layer" class="s2" d="m111.1 247.4c-3.8-8.4-2.9-40.9-2.9-40.9 0.7-0.9 1.2-1.9 1.4-3 0-1.1-0.5-2.1-1.4-2.8v-3.9h-10.6v3.9c-0.9 0.7-1.4 1.7-1.4 2.8 0.2 1.1 0.7 2.2 1.5 3 0 0 0.8 32.5-2.9 40.9-3.7 8.4-10.2 16.5-10.2 25.7v40.3c0 0 4.8 6.6 18.3 6.7 13.5 0.1 18.3-6.7 18.3-6.7v-40.3c0.1-9.2-6.3-17.2-10.1-25.7z"/>
		<path id="Layer" fill-rule="evenodd" class="s1" d="m103 320.8c-13.7 0-18.7-6.7-18.9-6.9-0.1-0.1-0.1-0.3-0.1-0.4v-40.3c0-6.7 3.3-12.8 6.6-18.7 1.3-2.4 2.6-4.8 3.7-7.3 3.5-7.8 2.9-37.4 2.9-40.4-0.7-0.9-1.2-2-1.4-3.2-0.1-1.2 0.4-2.4 1.4-3.2v-3.6c0-0.4 0.3-0.7 0.7-0.7h10.6c0.4 0 0.7 0.3 0.7 0.7v3.6c0.9 0.8 1.4 2 1.4 3.2-0.2 1.2-0.7 2.3-1.5 3.2-0.1 2.9-0.6 32.5 2.9 40.4 1.1 2.4 2.4 4.9 3.7 7.3 3.2 5.9 6.6 12 6.6 18.7v40.3c0 0.1 0 0.3-0.1 0.4-0.5 0.2-5.5 6.9-19.2 6.9zm-17.6-7.6c0.9 1 5.9 6.2 17.6 6.2 11.7 0 16.8-5.2 17.6-6.2v-40.1c0-6.3-3.2-12.3-6.4-18-1.3-2.4-2.7-4.9-3.8-7.4-3.8-8.5-3-39.9-3-41.2 0-0.2 0.1-0.3 0.2-0.4 0.6-0.8 1.1-1.7 1.3-2.7 0.1-1.1-1.1-2.1-1.1-2.1-0.2-0.1-0.3-0.3-0.3-0.5v-3.2h-9.2v3.2c0 0.2-0.1 0.4-0.3 0.5 0 0-1.2 1-1.1 2.1 0.2 1 0.7 1.9 1.3 2.7 0.1 0.1 0.2 0.3 0.2 0.4 0 1.3 0.8 32.7-3 41.2-1.1 2.5-2.5 5-3.8 7.4-3.1 5.8-6.4 11.7-6.4 18z"/>
		<path id="Layer" class="s1" d="m103 198.7c-2.9 0-5.3-0.8-5.3-1.9 0-1.1 2.4-1.9 5.3-1.9 2.9 0 5.3 0.8 5.3 1.9 0 1.1-2.4 1.9-5.3 1.9z"/>
		<path id="Layer" fill-rule="evenodd" class="s1" d="m103 199.4c-2.9 0-6-0.8-6-2.6 0-1.8 3.1-2.6 6-2.6 2.9 0 6 0.8 6 2.6 0 1.8-3.1 2.6-6 2.6zm0-3.8c-3 0-4.6 0.9-4.6 1.2 0 0.3 1.6 1.2 4.6 1.2 3 0 4.6-0.9 4.6-1.2 0-0.3-1.6-1.3-4.6-1.2z"/>
		<path id="Layer" class="s1" d="m102.7 208.4c-1.8 0.1-3.7-0.4-5.3-1.3-0.3-0.2-0.4-0.7-0.1-1 0.2-0.3 0.6-0.3 0.9-0.2 0.2 0.1 4 2.4 9.8 0 0.4-0.2 0.8 0 0.9 0.4 0.1 0.4 0 0.8-0.4 0.9-1.8 0.7-3.8 1.2-5.8 1.2z"/>
		<path id="Layer" class="s1" d="m102.7 203c-2 0-3.9-0.6-5.4-1.7-0.3-0.3-0.3-0.7-0.1-1 0.3-0.3 0.7-0.3 1-0.1 0.1 0.1 3.9 3.1 9.8-0.1 0.3-0.2 0.8-0.1 0.9 0.3 0.2 0.3 0 0.8-0.3 1-1.8 1-3.8 1.6-5.9 1.6z"/>
		<path id="Layer" fill-rule="evenodd" class="s3" d="m103.2 313.9c-5.2-0.1-10.2-1.9-14.3-5.1-0.2-0.1-0.2-0.3-0.2-0.5v-29.4q0-0.3 0.3-0.6c0.2-0.1 0.4-0.2 0.6-0.1 4.1 1.2 8.3 1.8 12.5 1.7 4.6 0 9.2-0.6 13.7-1.7 0.2-0.1 0.4 0 0.6 0.1q0.3 0.2 0.3 0.6v29.9q0 0.3-0.3 0.6c-3.8 2.9-8.4 4.5-13.2 4.5zm-13.1-5.9c7.3 5.9 17.7 6.1 25.2 0.5v-28.6q-6.5 1.5-13.2 1.5c-4.1 0-8.1-0.5-12.1-1.5v28.1z"/>
		<path id="Layer" class="s3" d="m92.8 283.2v22.8c0 0 8.8 6.8 19.6 0v-22.8c0 0-7.8 3.1-19.6 0z"/>
		<path id="Layer" fill-rule="evenodd" class="s3" d="m103.1 265c-3.4 0-6.8-0.7-9.9-2-0.3-0.1-0.5-0.4-0.4-0.8l1.6-8.9c0-0.2 0.2-0.4 0.3-0.5 0.2-0.1 0.4-0.1 0.6-0.1 6.8 2.3 14.3 0 14.4 0 0.2-0.1 0.4 0 0.6 0.1 0.2 0.1 0.3 0.3 0.3 0.5l2.1 8.9c0.1 0.3-0.1 0.6-0.4 0.8-3 1.3-6.1 2-9.2 2zm-8.9-3.1c2 0.8 9.6 3.2 16.8 0l-1.8-7.6c-4.5 1.2-9.2 1.2-13.7 0z"/>
		<path id="Layer" class="s3" d="m105.5 238.9c-0.4 0-0.7-0.3-0.7-0.7v-27.8c0-0.4 0.3-0.7 0.7-0.7 0.4 0 0.7 0.3 0.7 0.7v27.8c0 0.4-0.3 0.7-0.7 0.7z"/>
		<path id="Layer" class="s3" d="m118.4 276.8c-0.4 0-0.7-0.3-0.7-0.6-0.4-5.8-3.9-15-3.9-15.1-0.1-0.4 0-0.8 0.4-0.9 0.4-0.1 0.8 0 0.9 0.4 0.1 0.4 3.6 9.5 4 15.5 0 0.3-0.2 0.7-0.7 0.7q0.1 0 0 0z"/>
		<path id="Layer" class="s3" d="m97.2 256.1l-0.8 4.7c0 0 7.2 2.2 12.3 0l-0.6-4.7c-3.5 1.2-7.3 1.2-10.9 0z"/>
		<path id="Layer" class="s2" d="m62.7 259.2c-3.4-8.4-2.6-17.9-2.6-17.9 0.7-0.9 1.1-1.9 1.3-3 0-1.1-0.4-2.1-1.2-2.8v-3.9h-9.6v3.9c-0.8 0.7-1.2 1.7-1.2 2.8 0.2 1.1 0.7 2.1 1.3 3 0 0 0.8 9.4-2.6 17.9-3.4 8.5-11.8 11.2-11.8 20.4v35c0 0 6.9 5.3 19.1 5.3 12.2 0 19.1-5.3 19.1-5.3v-35c0-9.3-8.4-12-11.8-20.4z"/>
		<path id="Layer" fill-rule="evenodd" class="s1" d="m55.4 320.6c-12.3 0-19.2-5.2-19.5-5.5q-0.3-0.1-0.3-0.6v-35c0-5.6 3-8.9 6.1-12.4 2.2-2.4 4.4-4.9 5.7-8.3 3-7.5 2.7-16 2.6-17.4-0.7-1-1.1-2.1-1.3-3.2-0.1-1.2 0.4-2.3 1.2-3.1v-3.6c0-0.4 0.3-0.7 0.7-0.7h9.6c0.4 0 0.7 0.3 0.7 0.7v3.6c0.8 0.8 1.3 2 1.2 3.1-0.2 1.2-0.6 2.3-1.3 3.2-0.1 1.4-0.4 9.8 2.6 17.4 1.4 3.4 3.6 5.9 5.7 8.3 3.1 3.5 6.1 6.7 6.1 12.4v35q0 0.3-0.3 0.6c-0.3 0.2-7.2 5.4-19.5 5.5zm-18.4-6.4c1.4 0.9 8 5 18.4 5 10.4 0 17-4 18.4-5v-34.6c0-5.1-2.6-8-5.7-11.4-2.2-2.5-4.5-5-6-8.7-3.4-8.5-2.7-17.8-2.7-18.2 0-0.1 0.1-0.3 0.1-0.4q0.9-1.2 1.2-2.7c0-0.8-0.4-1.6-1-2.1-0.1-0.1-0.2-0.3-0.2-0.5v-3.2h-8.2v3.2c0 0.2-0.1 0.4-0.2 0.5-0.6 0.5-1 1.3-1 2.1q0.3 1.5 1.2 2.7c0.1 0.1 0.1 0.2 0.1 0.4 0 0.4 0.7 9.7-2.7 18.2-1.5 3.6-3.8 6.2-6 8.7-3.1 3.4-5.7 6.4-5.7 11.4z"/>
		<path id="Layer" class="s1" d="m55.4 233.4c-2.7 0-4.8-0.8-4.8-1.9 0-1.1 2.1-1.9 4.8-1.9 2.7 0 4.8 0.8 4.8 1.9 0 1.1-2.1 1.9-4.8 1.9z"/>
		<path id="Layer" fill-rule="evenodd" class="s1" d="m55.4 234.2c-2.7 0-5.5-0.9-5.5-2.6 0-3.4 11-3.4 11 0 0 1.7-2.8 2.6-5.5 2.6zm0-3.9c-2.7 0-4.1 0.9-4.1 1.2 0 0.3 1.4 1.2 4.1 1.2 2.7 0 4.1-0.9 4.1-1.2 0-0.3-1.4-1.2-4.1-1.2z"/>
		<path id="Layer" class="s1" d="m55.2 243.2c-1.7 0-3.4-0.4-4.8-1.3-0.3-0.2-0.4-0.7-0.2-1 0.2-0.3 0.7-0.4 1-0.2 0.2 0.1 3.5 2.4 8.7-0.1 0.4-0.2 0.8 0 0.9 0.3 0.1 0.3 0 0.8-0.3 0.9-1.7 0.9-3.5 1.3-5.3 1.4z"/>
		<path id="Layer" class="s1" d="m55.2 237.7c-1.8 0-3.6-0.6-5-1.7-0.3-0.3-0.3-0.7 0-1 0.3-0.3 0.7-0.3 1 0 0.2 0.1 3.4 3.1 8.7-0.1 0.3-0.2 0.8-0.1 1 0.2 0.2 0.3 0.1 0.8-0.2 1-1.7 1-3.6 1.6-5.5 1.6z"/>
		<path id="Layer" fill-rule="evenodd" class="s3" d="m55.6 315c-5.4-0.1-10.5-1.9-14.8-5.1-0.2-0.1-0.3-0.3-0.3-0.5v-24q0-0.3 0.3-0.6c0.2-0.1 0.4-0.2 0.6-0.1 4.3 1.2 8.7 1.8 13.1 1.7 4.8 0 9.6-0.6 14.2-1.7 0.2-0.1 0.4 0 0.6 0.1q0.3 0.1 0.3 0.6v24.6q0 0.3-0.3 0.6c-3.9 2.8-8.7 4.4-13.7 4.4zm-13.7-5.9c7.7 5.9 18.4 6.1 26.3 0.5v-23.3c-4.5 1-9.1 1.6-13.7 1.5q-6.4 0-12.6-1.5z"/>
		<path id="Layer" class="s3" d="m44.8 289.6v17.5c0 0 9.1 6.8 20.4 0v-17.5c0 0-8.2 3.1-20.4 0z"/>
		<path id="Layer" class="s3" d="m69 275.3c-0.3 0-0.5-0.2-0.6-0.4-0.9-1.7-2.1-3.2-3.5-4.5-2.1-2.1-4-4.4-5.5-7-3.3-5.9-4.4-15.7-4.4-16.1-0.1-0.4 0.2-0.7 0.6-0.8 0.4-0.1 0.7 0.2 0.8 0.6 0 0 0 0 0 0.1 0 0.1 1.1 9.9 4.2 15.6 1.4 2.5 3.2 4.7 5.3 6.7 1.6 1.4 2.8 3.1 3.8 5 0.2 0.4 0 0.8-0.4 0.9-0.1-0.1-0.2-0.1-0.3-0.1z"/>
		<path id="Layer" class="s3" d="m70.1 282.3c-0.4 0-0.7-0.3-0.7-0.7-0.1-1.1-0.1-2.1 0-3.2 0-0.4 0.3-0.7 0.7-0.6 0.4 0 0.7 0.4 0.6 0.7q-0.1 1.5 0 3c0.1 0.4-0.2 0.7-0.6 0.8q0-0.2 0 0z"/>
	</g>
	<g id="Right_Hand">
		<path id="Layer" class="s2" d="m208.4 316.9l25.7-1-4.1-33.6-19.7 1.5c0 0 2 26.4-1.9 33.1z"/>
		<path id="Layer" fill-rule="evenodd" class="s1" d="m208.4 317.6c-0.2 0-0.5-0.1-0.6-0.3-0.1-0.2-0.1-0.5 0-0.7 3.8-6.4 1.8-32.4 1.8-32.7 0-0.2 0-0.4 0.2-0.5 0.1-0.1 0.3-0.2 0.5-0.2l19.7-1.5c0.4 0 0.7 0.2 0.8 0.6l4.1 33.6c0 0.2 0 0.4-0.2 0.5-0.1 0.2-0.3 0.2-0.5 0.2zm2.6-33.2c0.3 4.1 1.5 24.3-1.5 31.7l23.8-1-3.9-32.2z"/>
		<path id="Layer" class="s0" d="m279.2 144.1c0 0 18 2.4 19 13.1 1 10.7 6.5 25.5 8.5 33.6 2 8.1 20 109.6 12 116.2-8 6.6-92.7 9.9-92.7 9.9 0 0 5.6-6.1 2.9-17.3-2.7-11.2-9.6-16.5-9.6-16.5l54-11.3-0.9-25c0 0 9.5-66.3 6.8-102.7z"/>
		<path id="Layer" class="s1" d="m303.9 286.5c-0.3 0-0.5-0.1-0.6-0.4-0.1-0.1-6.2-10.9-16.5-12.8-4.6-0.9-13.4-0.9-13.5-0.9-0.4 0-0.7-0.3-0.7-0.7 0-0.4 0.3-0.7 0.7-0.7 0.4 0 9 0 13.8 0.9 10.9 2 17.2 13 17.4 13.5 0.2 0.3 0 0.8-0.3 0.9-0.1 0.2-0.2 0.2-0.3 0.2z"/>
		<path id="Layer" class="s2" d="m206.3 278.7c0 0 10.8 1.9 8.1 8.6 0 0 5.6 6.6 1.5 11.3 0 0 3.6 5.8-1.9 9 0 0 3.2 6.9-3.4 8.8-6.6 1.9-23.8-2.2-22.1-4.5 1.7-2.3 5.8-2.2 5.8-2.2 0 0-6-0.2-5.9-4.5 0.1-2.7 5.2-2.7 5.2-2.7 0 0-6-1.8-5.5-4.6 0.7-3.5 6-4.1 6-4.1 0 0-7.2-1.7-4.4-4.3 2.8-2.6 16.5-5.6 16.5-5.6z"/>
		<path id="Layer" fill-rule="evenodd" class="s1" d="m206.4 317.6c-7 0-17-2.4-18.4-4.5-0.3-0.5-0.3-1.1 0-1.5 0.7-0.9 1.7-1.6 2.9-1.9-1.9-0.7-3.1-2.4-3.1-4.4 0-1.7 1.5-2.6 3.1-3-1.8-0.9-3.8-2.4-3.4-4.4 0.5-2.2 2.4-3.4 4.1-4-1.4-0.5-2.8-1.4-3.1-2.5-0.2-0.8 0.1-1.7 0.8-2.2 2.6-2.5 13.7-5.1 16.3-5.7v-4.5c0-0.2 0.1-0.4 0.2-0.5 0.2-0.1 0.4-0.2 0.6-0.2 0.3 0 6.4 1.2 8.5 4.8 0.8 1.4 0.9 3 0.3 4.4 1.1 1.4 4.9 7 1.5 11.5 0.9 1.7 1.2 3.7 0.8 5.5-0.4 1.5-1.4 2.8-2.7 3.7 0.8 1.9 0.8 4.1 0.1 6-0.8 1.6-2.3 2.8-4.1 3.2-1.4 0.1-2.9 0.2-4.4 0.2zm-17.3-5.3c1 1.7 15.2 5.2 21.3 3.5 1.4-0.3 2.6-1.2 3.2-2.5 1.1-2.3-0.3-5.4-0.3-5.4-0.2-0.3 0-0.7 0.3-0.9 1.2-0.6 2.1-1.8 2.5-3.1 0.3-1.7 0-3.4-0.9-4.9-0.2-0.3-0.1-0.6 0.1-0.8 3.7-4.2-1.5-10.3-1.5-10.3-0.2-0.2-0.2-0.5-0.1-0.7 0.5-1.1 0.5-2.5-0.1-3.6-1.3-2.4-5-3.5-6.7-3.9v4.2c0 0.3-0.2 0.6-0.5 0.7-3.8 0.8-14 3.4-16.2 5.5-0.3 0.3-0.5 0.6-0.4 0.8 0.2 0.9 2.8 1.9 4.5 2.3 0.4 0.1 0.6 0.5 0.5 0.8-0.1 0.3-0.3 0.5-0.6 0.5 0 0-4.8 0.6-5.4 3.5-0.4 1.8 3.6 3.4 5 3.8 0.3 0.1 0.5 0.4 0.5 0.8 0 0.3-0.3 0.6-0.7 0.6-1.1 0-4.4 0.4-4.5 2-0.1 3.6 5 3.8 5.2 3.8 0.4 0 0.7 0.3 0.7 0.7 0 0.4-0.3 0.7-0.7 0.7 0.1-0.1-3.7 0-5.2 1.9z"/>
		<path id="Layer" class="s1" d="m199.8 294.9c-1.9 0-3.9-0.2-5.8-0.5-0.4-0.1-0.6-0.4-0.6-0.8 0-0.4 0.4-0.6 0.8-0.6 0.1 0 8.3 1.4 12.9-0.9 0.3-0.2 0.8 0 0.9 0.3 0.2 0.3 0 0.8-0.3 0.9-2.4 1.2-5.2 1.7-7.9 1.6z"/>
		<path id="Layer" class="s1" d="m201.9 304.1c-2.8 0-5.7-0.3-8.4-0.9-0.4-0.1-0.6-0.5-0.5-0.8 0.1-0.3 0.5-0.6 0.8-0.5 0.1 0 8.7 2 14.4 0 0.4-0.1 0.8 0.1 0.9 0.4 0.1 0.3-0.1 0.8-0.4 0.9-2.3 0.6-4.6 0.9-6.8 0.9z"/>
		<path id="Layer" class="s1" d="m201.9 311.5q-3.9 0-7.8-1.2c-0.4-0.1-0.6-0.5-0.5-0.8 0.1-0.4 0.5-0.6 0.8-0.5 0 0 0 0 0.1 0 0.1 0 8.1 2.4 12.6 0 0.3-0.2 0.8-0.1 0.9 0.3 0.2 0.3 0.1 0.8-0.3 0.9-1.8 1-3.8 1.4-5.8 1.3z"/>
		<path id="Layer" class="s1" d="m281.2 205.3c-0.1 0-0.2 0-0.2 0-0.4-0.1-0.6-0.5-0.4-0.9 3-8.2 18.9-33.5 19.6-34.6 0.2-0.3 0.6-0.4 1-0.2 0.4 0.2 0.4 0.6 0.2 1-0.2 0.3-16.5 26.2-19.5 34.3-0.2 0.2-0.4 0.4-0.7 0.4z"/>
	</g>
</svg>